HIERARCHY
ROOT hip
{
  OFFSET 0 0 0
  CHANNELS 6 Xposition Yposition Zposition Zrotation Yrotation Xrotation
  JOINT abdomen
  {
    OFFSET 0 20.6881 -0.73152
    CHANNELS 3 Zrotation Xrotation Yrotation
    JOINT chest
    {
      OFFSET 0 11.7043 -0.48768
      CHANNELS 3 Zrotation Xrotation Yrotation
      JOINT neck
      {
        OFFSET 0 22.1894 -2.19456
        CHANNELS 3 Zrotation Xrotation Yrotation
        JOINT head
        {
          OFFSET -0.24384 7.07133 1.2192
          CHANNELS 3 Zrotation Xrotation Yrotation
          JOINT leftEye
          {
            OFFSET 4.14528 8.04674 8.04672
            CHANNELS 3 Zrotation Xrotation Yrotation
            End Site
            {
              OFFSET 1 0 0
            }
          }
          JOINT rightEye
          {
            OFFSET -3.6576 8.04674 8.04672
            CHANNELS 3 Zrotation Xrotation Yrotation
            End Site
            {
              OFFSET 1 0 0
            }
          }
        }
      }
      JOINT rCollar
      {
        OFFSET -2.68224 19.2634 -4.8768
        CHANNELS 3 Zrotation Xrotation Yrotation
        JOINT rShldr
        {
          OFFSET -8.77824 -1.95073 1.46304
          CHANNELS 3 Zrotation Xrotation Yrotation
          JOINT rForeArm
          {
            OFFSET -28.1742 -1.7115 0.48768
            CHANNELS 3 Zrotation Xrotation Yrotation
            JOINT rHand
            {
              OFFSET -22.5879 0.773209 7.07136
              CHANNELS 3 Zrotation Xrotation Yrotation
              JOINT rThumb1
              {
                OFFSET -1.2192 -0.487915 3.41376
                CHANNELS 3 Zrotation Xrotation Yrotation
                JOINT rThumb2
                {
                  OFFSET -3.37035 -0.52449 3.41376
                  CHANNELS 3 Zrotation Xrotation Yrotation
                  End Site
                  {
                    OFFSET -1.78271 -1.18214 1.43049
                  }
                }
              }
              JOINT rIndex1
              {
                OFFSET -7.75947 0.938293 5.60832
                CHANNELS 3 Zrotation Xrotation Yrotation
                JOINT rIndex2
                {
                  OFFSET -2.54057 -0.884171 1.56538
                  CHANNELS 3 Zrotation Xrotation Yrotation
                  End Site
                  {
                    OFFSET -1.62519 -0.234802 1.16502
                  }
                }
              }
              JOINT rMid1
              {
                OFFSET -8.24714 1.18213 3.41376
                CHANNELS 3 Zrotation Xrotation Yrotation
                JOINT rMid2
                {
                  OFFSET -3.10165 -0.590103 1.0647
                  CHANNELS 3 Zrotation Xrotation Yrotation
                  End Site
                  {
                    OFFSET -2.48547 -0.328903 0.83742
                  }
                }
              }
              JOINT rRing1
              {
                OFFSET -8.82822 0.546677 1.51678
                CHANNELS 3 Zrotation Xrotation Yrotation
                JOINT rRing2
                {
                  OFFSET -2.60934 -0.819778 -0.0198488
                  CHANNELS 3 Zrotation Xrotation Yrotation
                  End Site
                  {
                    OFFSET -2.33842 -0.294052 0.168128
                  }
                }
              }
              JOINT rPinky1
              {
                OFFSET -8.27202 -0.0477905 -0.4584
                CHANNELS 3 Zrotation Xrotation Yrotation
                JOINT rPinky2
                {
                  OFFSET -1.82734 -0.647385 -0.700984
                  CHANNELS 3 Zrotation Xrotation Yrotation
                  End Site
                  {
                    OFFSET -1.69225 -0.51767 -0.607171
                  }
                }
              }
            }
          }
        }
      }
      JOINT lCollar
      {
        OFFSET 2.68224 19.2634 -4.8768
        CHANNELS 3 Zrotation Xrotation Yrotation
        JOINT lShldr
        {
          OFFSET 8.77824 -1.95073 1.46304
          CHANNELS 3 Zrotation Xrotation Yrotation
          JOINT lForeArm
          {
            OFFSET 28.1742 -1.7115 0.48768
            CHANNELS 3 Zrotation Xrotation Yrotation
            JOINT lHand
            {
              OFFSET 22.5879 0.773209 7.07136
              CHANNELS 3 Zrotation Xrotation Yrotation
              JOINT lThumb1
              {
                OFFSET 1.2192 -0.487915 3.41376
                CHANNELS 3 Zrotation Xrotation Yrotation
                JOINT lThumb2
                {
                  OFFSET 3.37035 -0.52449 3.41376
                  CHANNELS 3 Zrotation Xrotation Yrotation
                  End Site
                  {
                    OFFSET 1.78271 -1.18214 1.43049
                  }
                }
              }
              JOINT lIndex1
              {
                OFFSET 7.75947 0.938293 5.60832
                CHANNELS 3 Zrotation Xrotation Yrotation
                JOINT lIndex2
                {
                  OFFSET 2.54057 -0.884171 1.56538
                  CHANNELS 3 Zrotation Xrotation Yrotation
                  End Site
                  {
                    OFFSET 1.62519 -0.234802 1.16502
                  }
                }
              }
              JOINT lMid1
              {
                OFFSET 8.24714 1.18213 3.41376
                CHANNELS 3 Zrotation Xrotation Yrotation
                JOINT lMid2
                {
                  OFFSET 3.10165 -0.590103 1.0647
                  CHANNELS 3 Zrotation Xrotation Yrotation
                  End Site
                  {
                    OFFSET 2.48547 -0.328903 0.83742
                  }
                }
              }
              JOINT lRing1
              {
                OFFSET 8.82822 0.546677 1.51678
                CHANNELS 3 Zrotation Xrotation Yrotation
                JOINT lRing2
                {
                  OFFSET 2.60934 -0.819778 -0.0198488
                  CHANNELS 3 Zrotation Xrotation Yrotation
                  End Site
                  {
                    OFFSET 2.33842 -0.294052 0.168128
                  }
                }
              }
              JOINT lPinky1
              {
                OFFSET 8.27202 -0.0477905 -0.4584
                CHANNELS 3 Zrotation Xrotation Yrotation
                JOINT lPinky2
                {
                  OFFSET 1.82734 -0.647385 -0.700984
                  CHANNELS 3 Zrotation Xrotation Yrotation
                  End Site
                  {
                    OFFSET 1.69225 -0.51767 -0.607171
                  }
                }
              }
            }
          }
        }
      }
    }
  }
  JOINT rButtock
  {
    OFFSET -8.77824 4.35084 1.2192
    CHANNELS 3 Zrotation Xrotation Yrotation
    JOINT rThigh
    {
      OFFSET 0 -1.70687 -2.19456
      CHANNELS 3 Zrotation Xrotation Yrotation
      JOINT rShin
      {
        OFFSET 0 -36.8199 0.73152
        CHANNELS 3 Zrotation Xrotation Yrotation
        JOINT rFoot
        {
          OFFSET 0.73152 -45.1104 -5.12064
          CHANNELS 3 Zrotation Xrotation Yrotation
          End Site
          {
            OFFSET -1.1221 -3.69964 12.103
          }
        }
      }
    }
  }
  JOINT lButtock
  {
    OFFSET 8.77824 4.35084 1.2192
    CHANNELS 3 Zrotation Xrotation Yrotation
    JOINT lThigh
    {
      OFFSET 0 -1.70687 -2.19456
      CHANNELS 3 Zrotation Xrotation Yrotation
      JOINT lShin
      {
        OFFSET 0 -36.8199 0.73152
        CHANNELS 3 Zrotation Xrotation Yrotation
        JOINT lFoot
        {
          OFFSET -0.73152 -45.1104 -5.12064
          CHANNELS 3 Zrotation Xrotation Yrotation
          End Site
          {
            OFFSET 1.1221 -3.69964 12.103
          }
        }
      }
    }
  }
}
MOTION
Frames:	6
Frame Time:	0.00833333
54.8906 85.4748 -85.1287 -4.0553 -4.3178 4.4993 8.34727 1.83133 4.96504 -1.69591 0.16822 1.59309 -11.8069 -5.42342 -4.80094 13.2135 3.34268 -5.52708 -0.0 0.0 0.0 -0.0 0.0 0.0 -6.04416e-14 2.46497e-14 -2.25322e-13 71.9987 45.3629 0.17852 -20.5099 -13.6668 39.9325 -0.150286 -10.9836 -1.56303 3.66076e-10 -7.34867e-10 4.78209e-10 6.23771e-10 -1.26241e-09 8.31046e-10 3.66076e-10 -7.34861e-10 4.78196e-10 7.73091 5.47488 0.417314 3.66073e-10 -7.34862e-10 4.78206e-10 2.90554 0.965183 0.102902 3.66085e-10 -7.34861e-10 4.78212e-10 10.2786 0.731801 0.0259123 3.66076e-10 -7.3486e-10 4.78225e-10 2.22167 -0.733487 -0.20892 -6.05229e-14 2.46485e-14 -2.25472e-13 -81.6513 28.8533 8.17025 11.7591 -5.28116 -21.1446 0.0516438 6.47162 -0.913454 5.762e-10 9.68543e-10 1.02841e-09 1.0028e-09 1.67721e-09 1.77546e-09 5.76198e-10 9.68543e-10 1.02843e-09 -7.73091 5.47488 -0.417314 5.76203e-10 9.68541e-10 1.02841e-09 -2.90554 0.965183 -0.102902 5.76196e-10 9.6854e-10 1.02841e-09 -10.2786 0.731801 -0.0259123 5.76205e-10 9.68539e-10 1.02839e-09 -2.22167 -0.733487 0.20892 -2.03217e-16 0.0 -3.88251e-19 8.45257 14.9543 -0.0844258 0.134104 12.9295 1.32736 -0.763481 3.39827 1.11065 2.03217e-16 0.0 3.88251e-19 3.61586 -39.1114 -4.66284 0.0812759 28.281 -1.4148 1.96807 -3.17991 11.5714
54.992 85.3635 -83.9345 -3.7228 -4.5037 4.2883 7.68028 1.90581 5.00097 -1.57758 0.156769 1.5917 -11.8034 -5.52214 -4.79342 13.2292 3.3205 -5.49216 -0.0 0.0 0.0 -0.0 0.0 0.0 -4.94972e-14 -1.55732e-14 -1.55915e-13 72.3953 45.1396 -0.143004 -20.4014 -13.5249 39.6644 -0.147243 -10.873 -1.54691 3.32338e-10 -6.23636e-10 2.56063e-10 5.69716e-10 -1.07487e-09 4.46036e-10 3.32339e-10 -6.23632e-10 2.56049e-10 7.73091 5.47488 0.417314 3.32336e-10 -6.23631e-10 2.56058e-10 2.90554 0.965183 0.102902 3.32348e-10 -6.23629e-10 2.56062e-10 10.2786 0.731801 0.0259123 3.32338e-10 -6.23629e-10 2.56075e-10 2.22167 -0.733487 -0.20892 -4.95862e-14 -1.55743e-14 -1.56068e-13 -81.5991 28.6764 8.01084 11.6396 -5.19966 -20.9138 0.0563499 6.77338 -0.956409 5.90025e-10 6.20513e-10 6.96363e-10 1.02426e-09 1.07422e-09 1.20142e-09 5.90022e-10 6.20515e-10 6.96379e-10 -7.73091 5.47488 -0.417314 5.90026e-10 6.20513e-10 6.96364e-10 -2.90554 0.965183 -0.102902 5.9002e-10 6.20512e-10 6.96361e-10 -10.2786 0.731801 -0.0259123 5.9003e-10 6.20512e-10 6.96349e-10 -2.22167 -0.733487 0.20892 -2.03217e-16 0.0 -3.88251e-19 7.80848 14.2171 -0.408069 0.143104 15.2446 1.30957 -0.802648 4.9397 1.00341 2.03217e-16 0.0 3.88251e-19 3.11956 -39.075 -4.24471 0.101322 29.2704 -1.35961 1.76557 -2.47781 11.237
55.1792 85.3343 -82.7834 -3.2447 -4.5575 4.1441 6.82804 1.93972 5.01556 -1.45066 0.161479 1.5748 -11.8146 -5.5935 -4.77271 13.2315 3.32263 -5.4332 -0.0 0.0 0.0 -0.0 0.0 0.0 -2.68477e-14 -6.8829e-14 -1.80149e-14 72.8507 44.9021 -0.551964 -20.2965 -13.3889 39.4062 -0.144568 -10.7755 -1.5327 2.30299e-10 -3.79557e-10 -8.46554e-11 3.99902e-10 -6.59688e-10 -1.44941e-10 2.30302e-10 -3.79556e-10 -8.46715e-11 7.73091 5.47488 0.417314 2.30297e-10 -3.79553e-10 -8.46622e-11 2.90554 0.965183 0.102902 2.3031e-10 -3.79552e-10 -8.46598e-11 10.2786 0.731801 0.0259123 2.30298e-10 -3.79552e-10 -8.46497e-11 2.22167 -0.733487 -0.20892 -2.69377e-14 -6.88298e-14 -1.81639e-14 -81.5292 28.5499 7.79767 11.4991 -5.10437 -20.6432 0.0625975 7.1428 -1.00909 4.66197e-10 2.00243e-11 2.01735e-10 8.06547e-10 3.42195e-11 3.46993e-10 4.66191e-10 2.00268e-11 2.01744e-10 -7.73091 5.47488 -0.417314 4.66196e-10 2.00267e-11 2.01732e-10 -2.90554 0.965183 -0.102902 4.6619e-10 2.00259e-11 2.0173e-10 -10.2786 0.731801 -0.0259123 4.66201e-10 2.00278e-11 2.01721e-10 -2.22167 -0.733487 0.20892 -2.03217e-16 0.0 -3.88251e-19 6.98823 12.88 -0.796942 0.160437 18.5286 1.28228 -0.853195 6.23656 0.987968 2.03217e-16 0.0 3.88251e-19 2.48525 -39.0629 -3.63962 0.124137 30.2922 -1.27142 1.51243 -1.82261 10.3402
55.4298 85.232 -81.6467 -2.6405 -4.2749 4.1823 5.89192 1.96703 5.02107 -1.33416 0.164233 1.55229 -11.8239 -5.6316 -4.74903 13.2288 3.33934 -5.377 -0.0 0.0 0.0 -0.0 0.0 0.0 -2.27154e-15 -1.18681e-13 1.1899e-13 73.3334 44.6727 -0.992134 -20.1887 -13.2507 39.1414 -0.14231 -10.6927 -1.52064 1.09285e-10 -1.10979e-10 -4.22337e-10 1.97161e-10 -2.01841e-10 -7.30853e-10 1.0929e-10 -1.1098e-10 -4.22355e-10 7.73091 5.47488 0.417314 1.09283e-10 -1.10976e-10 -4.22345e-10 2.90554 0.965183 0.102902 1.09296e-10 -1.10975e-10 -4.22345e-10 10.2786 0.731801 0.0259123 1.09282e-10 -1.10975e-10 -4.22337e-10 2.22167 -0.733487 -0.20892 -2.35812e-15 -1.18681e-13 1.18846e-13 -81.4473 28.4833 7.57568 11.3706 -5.01753 -20.3972 0.0692898 7.5035 -1.06064 3.11302e-10 -5.79252e-10 -3.00353e-10 5.35089e-10 -1.00367e-09 -5.20187e-10 3.11294e-10 -5.79248e-10 -3.00352e-10 -7.73091 5.47488 -0.417314 3.113e-10 -5.79247e-10 -3.0036e-10 -2.90554 0.965183 -0.102902 3.11294e-10 -5.79248e-10 -3.00361e-10 -10.2786 0.731801 -0.0259123 3.11307e-10 -5.79244e-10 -3.00367e-10 -2.22167 -0.733487 0.20892 -2.03217e-16 0.0 -3.88251e-19 6.05522 11.2905 -1.22718 0.170767 22.189 1.2551 -0.905583 7.46863 1.00823 2.03217e-16 0.0 3.88251e-19 1.73854 -38.9752 -3.05896 0.14463 31.231 -1.17165 1.28842 -1.31219 9.28977
55.6415 85.1593 -80.5346 -2.1467 -4.0094 4.2732 4.97321 2.02165 5.02978 -1.24709 0.146912 1.53405 -11.8148 -5.63056 -4.73259 13.2295 3.36087 -5.35037 -0.0 0.0 0.0 -0.0 0.0 0.0 1.44528e-14 -1.48691e-13 1.85715e-13 73.8141 44.4743 -1.40884 -20.0713 -13.1018 38.8534 -0.140524 -10.6262 -1.51096 1.8619e-11 7.37539e-11 -6.35373e-10 4.43222e-11 1.13711e-10 -1.10067e-09 1.86253e-11 7.37523e-11 -6.35392e-10 7.73091 5.47488 0.417314 1.86171e-11 7.3757e-11 -6.35383e-10 2.90554 0.965183 0.102902 1.863e-11 7.37578e-11 -6.35383e-10 10.2786 0.731801 0.0259123 1.86154e-11 7.37575e-11 -6.35376e-10 2.22167 -0.733487 -0.20892 1.43719e-14 -1.48691e-13 1.85565e-13 -81.3586 28.4864 7.38951 11.2881 -4.96176 -20.2402 0.0748006 7.77917 -1.10013 2.3193e-10 -9.23643e-10 -6.54778e-10 3.9531e-10 -1.60033e-09 -1.13247e-09 2.3192e-10 -9.23638e-10 -6.54781e-10 -7.73091 5.47488 -0.417314 2.31927e-10 -9.23637e-10 -6.54787e-10 -2.90554 0.965183 -0.102902 2.3192e-10 -9.23637e-10 -6.54787e-10 -10.2786 0.731801 -0.0259123 2.31934e-10 -9.23632e-10 -6.5479e-10 -2.22167 -0.733487 0.20892 -2.03217e-16 0.0 -3.88251e-19 5.08405 9.79642 -1.67757 0.15573 25.6331 1.23554 -0.944717 8.81576 1.00791 2.03217e-16 0.0 3.88251e-19 0.902159 -38.7162 -2.71609 0.160339 31.9713 -1.08285 1.14874 -1.04977 8.49312
55.7882 85.1547 -79.3876 -1.7586 -4.113 4.1708 4.10354 2.12185 5.06456 -1.21305 0.090654 1.52845 -11.7738 -5.55698 -4.72767 13.2425 3.38548 -5.37343 -0.0 0.0 0.0 -0.0 0.0 0.0 2.31985e-14 -1.4956e-13 1.39908e-13 74.3228 44.3128 -1.82335 -19.9375 -12.934 38.5267 -0.139574 -10.5901 -1.5057 -5.11773e-11 1.67593e-10 -6.7277e-10 -7.61982e-11 2.76127e-10 -1.16615e-09 -5.1173e-11 1.67593e-10 -6.72788e-10 7.73091 5.47488 0.417314 -5.11798e-11 1.67598e-10 -6.72778e-10 2.90554 0.965183 0.102902 -5.11676e-11 1.67598e-10 -6.72778e-10 10.2786 0.731801 0.0259123 -5.11811e-11 1.67598e-10 -6.72772e-10 2.22167 -0.733487 -0.20892 2.31268e-14 -1.49561e-13 1.39737e-13 -81.2662 28.5885 7.28411 11.2752 -4.95293 -20.2161 0.0781632 7.94311 -1.12363 2.51368e-10 -8.90417e-10 -8.20323e-10 4.27855e-10 -1.54332e-09 -1.4186e-09 2.51356e-10 -8.90413e-10 -8.20328e-10 -7.73091 5.47488 -0.417314 2.51364e-10 -8.90412e-10 -8.20335e-10 -2.90554 0.965183 -0.102902 2.51356e-10 -8.90412e-10 -8.20333e-10 -10.2786 0.731801 -0.0259123 2.51372e-10 -8.90408e-10 -8.20335e-10 -2.22167 -0.733487 0.20892 -2.03217e-16 0.0 -3.88251e-19 4.07436 8.50754 -2.17561 0.104616 28.7484 1.22523 -0.97282 10.3022 1.04126 2.03217e-16 0.0 3.88251e-19 -0.0345086 -38.2445 -2.70049 0.174008 32.5036 -1.01246 1.10659 -1.14566 8.05304
